<svg width="103" height="30" viewBox="0 0 103 30" fill="none" xmlns="http://www.w3.org/2000/svg">
<path d="M20.2855 29.4677V8.68365C20.2855 8.4429 20.0912 8.24774 19.8504 8.24774H15.3369C15.0961 8.24774 14.9029 8.44374 14.8836 8.68372C14.6689 11.3551 12.4965 13.3333 9.95237 13.5378C9.71236 13.5571 9.51662 13.7509 9.51662 13.9917V17.2093C9.51662 17.4501 9.71181 17.6447 9.9526 17.6447H14.4651C14.7059 17.6447 14.9011 17.8399 14.9011 18.0806C14.9011 21.8969 14.8985 25.7132 14.8985 29.5294C14.8985 29.7702 14.7033 29.9826 14.4625 29.9826H14.2711C6.32537 29.6024 0 23.0399 0 15C0 6.71573 6.71573 0 15 0C23.2843 0 30 6.71573 30 15V23.6556C30 27.1595 27.1595 30 23.6556 30H21.4804L20.7317 29.9826C20.4909 29.9826 20.2867 29.7702 20.2867 29.5294L20.2855 29.4677Z" fill="#15C657"/>
<path d="M43.0482 22.669C43.8362 22.669 44.499 22.4381 45.0366 21.9762C45.5816 21.507 45.854 20.9241 45.854 20.2276V19.4997C45.854 19.4114 45.7796 19.3414 45.6914 19.3467L43.1476 19.5018C42.4848 19.5458 41.9693 19.7107 41.601 19.9967C41.2402 20.2753 41.0597 20.6455 41.0597 21.1074C41.0597 21.5839 41.2402 21.9652 41.601 22.2511C41.9693 22.5297 42.4516 22.669 43.0482 22.669ZM42.2197 24.7365C41.0781 24.7365 40.1392 24.4103 39.4027 23.7578C38.6736 23.1052 38.3091 22.2584 38.3091 21.2174C38.3091 20.1836 38.692 19.3661 39.4579 18.765C40.2312 18.1638 41.3322 17.8192 42.7609 17.7312L45.7095 17.5635C45.7906 17.5589 45.854 17.4917 45.854 17.4104V16.7195C45.854 16.1109 45.6589 15.6381 45.2686 15.3008C44.8856 14.9636 44.3517 14.7949 43.6668 14.7949C43.0261 14.7949 42.5032 14.9379 42.0981 15.2238C41.7282 15.485 41.4903 15.8317 41.3845 16.2641C41.3669 16.3362 41.304 16.3895 41.2298 16.3895H38.9678C38.88 16.3895 38.8098 16.3157 38.8179 16.2282C38.9127 15.1949 39.3838 14.3506 40.2312 13.6952C41.1297 12.9987 42.3117 12.6504 43.7772 12.6504C45.2281 12.6504 46.388 13.0024 47.257 13.7062C48.1334 14.41 48.5716 15.3485 48.5716 16.5215V24.3963C48.5716 24.4809 48.5029 24.5496 48.4183 24.5496H46.0736C45.989 24.5496 45.9203 24.4809 45.9203 24.3963V22.7255C45.9203 22.7065 45.9049 22.691 45.8858 22.691C45.8731 22.691 45.8614 22.6981 45.8553 22.7093C45.5239 23.324 45.0263 23.8164 44.3627 24.1866C43.6926 24.5532 42.9782 24.7365 42.2197 24.7365Z" fill="#162536"/>
<path d="M51.2488 24.5496C51.1642 24.5496 51.0955 24.4809 51.0955 24.3963V8.83369C51.0955 8.74903 51.1642 8.68041 51.2488 8.68041H53.6929C53.7776 8.68041 53.8462 8.74903 53.8462 8.83369V24.3963C53.8462 24.4809 53.7776 24.5496 53.6929 24.5496H51.2488Z" fill="#162536"/>
<path d="M56.645 24.5496C56.5603 24.5496 56.4917 24.4809 56.4917 24.3963V8.83369C56.4917 8.74903 56.5603 8.68041 56.645 8.68041H59.0891C59.1737 8.68041 59.2423 8.74903 59.2423 8.83369V24.3963C59.2423 24.4809 59.1737 24.5496 59.0891 24.5496H56.645Z" fill="#162536"/>
<path d="M69.1124 8.41647C71.4323 8.41647 73.2697 9.15329 74.6248 10.6269C75.9872 12.1006 76.6684 14.0984 76.6684 16.6205C76.6684 19.1425 75.9872 21.1404 74.6248 22.614C73.2697 24.0803 71.4323 24.8135 69.1124 24.8135C66.7852 24.8135 64.9404 24.0803 63.578 22.614C62.2229 21.1404 61.5454 19.1425 61.5454 16.6205C61.5454 14.0984 62.2229 12.1006 63.578 10.6269C64.9404 9.15329 66.7852 8.41647 69.1124 8.41647ZM72.5038 12.4085C71.6642 11.3601 70.5338 10.8359 69.1124 10.8359C67.6911 10.8359 66.5606 11.3564 65.7211 12.3975C64.8815 13.4386 64.4617 14.8462 64.4617 16.6205C64.4617 18.3874 64.8815 19.7914 65.7211 20.8325C66.5606 21.8735 67.6911 22.3941 69.1124 22.3941C70.5338 22.3941 71.6642 21.8735 72.5038 20.8325C73.3434 19.7914 73.7631 18.3874 73.7631 16.6205C73.7631 14.8536 73.3434 13.4496 72.5038 12.4085Z" fill="#162536"/>
<path d="M79.0474 24.5496C78.9628 24.5496 78.8942 24.4809 78.8942 24.3963V13.0457C78.8942 12.961 78.9628 12.8924 79.0474 12.8924H81.3811C81.4657 12.8924 81.5343 12.961 81.5343 13.0457V14.8602C81.5343 14.8788 81.5494 14.8939 81.568 14.8939C81.5812 14.8939 81.5931 14.8862 81.5987 14.8743C81.9224 14.1799 82.3907 13.6403 83.0036 13.2553C83.6296 12.8667 84.3844 12.6724 85.2682 12.6724C86.5496 12.6724 87.5438 13.0573 88.2508 13.8272C88.9652 14.597 89.3223 15.66 89.3223 17.0164V24.3963C89.3223 24.4809 89.2537 24.5496 89.1691 24.5496H86.725C86.6403 24.5496 86.5717 24.4809 86.5717 24.3963V17.5663C86.5717 16.7305 86.3728 16.0926 85.9752 15.6527C85.5848 15.2128 85.003 14.9929 84.2298 14.9929C83.4418 14.9929 82.8121 15.2495 82.3408 15.7627C81.8768 16.2759 81.6448 16.9541 81.6448 17.7972V24.3963C81.6448 24.4809 81.5762 24.5496 81.4915 24.5496H79.0474Z" fill="#162536"/>
<path d="M96.8063 14.7729C96.0404 14.7729 95.3997 15.0369 94.8842 15.5647C94.4103 16.0502 94.1317 16.6663 94.0486 17.4132C94.0387 17.5016 94.1093 17.5773 94.1982 17.5773H99.3429C99.4297 17.5773 99.4995 17.5052 99.4931 17.4186C99.4375 16.6623 99.179 16.0407 98.7174 15.5537C98.224 15.0332 97.587 14.7729 96.8063 14.7729ZM99.4771 21.1718C99.5 21.1081 99.5592 21.0634 99.6269 21.0634H101.907C102.001 21.0634 102.073 21.1479 102.055 21.2403C101.848 22.2665 101.295 23.1057 100.397 23.7578C99.4465 24.4396 98.2829 24.7805 96.9057 24.7805C95.153 24.7805 93.7758 24.2453 92.7742 23.1749C91.7727 22.0972 91.2719 20.6272 91.2719 18.765C91.2719 16.9174 91.769 15.4364 92.7632 14.322C93.7648 13.2076 95.1088 12.6504 96.7953 12.6504C98.4523 12.6504 99.7669 13.182 100.739 14.2451C101.711 15.3008 102.197 16.7158 102.197 18.49V19.2275C102.197 19.3122 102.129 19.3808 102.044 19.3808H94.1648C94.0801 19.3808 94.0115 19.4494 94.0115 19.5341V19.5458C94.0115 20.4842 94.2766 21.2394 94.8069 21.8112C95.3445 22.3831 96.0625 22.669 96.961 22.669C97.5943 22.669 98.1393 22.5261 98.5959 22.2401C99.0252 21.9688 99.319 21.6126 99.4771 21.1718Z" fill="#162536"/>
</svg>
