<svg width="56" height="56" viewBox="0 0 56 56" fill="none" xmlns="http://www.w3.org/2000/svg">
<path fill-rule="evenodd" clip-rule="evenodd" d="M0.5 27.9219C0.5 43.0666 12.7772 55.3438 27.9219 55.3438H43.3467C49.9725 55.3437 55.3437 49.9725 55.3437 43.3467V27.9219C55.3437 12.7772 43.0666 0.500002 27.9219 0.500003C12.7772 0.500003 0.5 12.7772 0.5 27.9219ZM7.35547 27.9219C7.35547 16.5539 16.5554 7.35547 27.9219 7.35547C39.2899 7.35547 48.4883 16.5554 48.4883 27.9219C48.4883 39.2899 39.2884 48.4883 27.9219 48.4883C16.5539 48.4883 7.35547 39.2883 7.35547 27.9219ZM42.2062 21.3455C39.7117 15.9488 34.2474 12.1946 27.9219 12.1946C21.5964 12.1946 16.132 15.9488 13.6375 21.3455C13.6958 21.3344 13.8258 21.3016 14.0215 21.2524C15.5619 20.8648 21.1713 19.4534 27.9219 19.4534C34.6667 19.4534 40.2458 20.8562 41.8079 21.249C42.0099 21.2998 42.1448 21.3337 42.2062 21.3455ZM24.2925 27.9219C24.2925 29.9232 25.9207 31.5512 27.9219 31.5512C29.9232 31.5512 31.5512 29.9232 31.5512 27.9219C31.5512 25.9206 29.9232 24.2925 27.9219 24.2925C25.9207 24.2925 24.2925 25.9206 24.2925 27.9219ZM12.9001 31.0342C12.7437 31.001 12.6064 30.9718 12.4878 30.9473C13.671 36.9946 18.3301 41.8119 24.2925 43.2256V42.2375C24.2925 36.9786 20.5498 32.4766 15.3931 31.5314C14.2936 31.3299 13.4699 31.1551 12.9001 31.0342ZM31.5512 42.2363V43.2257C37.5136 41.8119 42.1727 36.9946 43.356 30.9473C43.2458 30.9701 43.1151 30.9979 42.9638 31.03C42.4078 31.1482 41.573 31.3257 40.4505 31.5314C35.2939 32.4766 31.5512 36.9787 31.5512 42.2363Z" fill="#15C657"/>
</svg>
