<svg width="16" height="16" viewBox="0 0 16 16" fill="none" xmlns="http://www.w3.org/2000/svg">
<path d="M15.7777 13.3046L13.5219 15.5423C13.1889 15.8838 12.7475 15.9995 12.3177 16C10.4167 15.9431 8.61989 15.0093 7.14458 14.0505C4.72295 12.2887 2.501 10.1043 1.10646 7.46443C0.571604 6.35746 -0.0559711 4.94504 0.00398908 3.70945C0.00933576 3.24465 0.134589 2.78848 0.461937 2.48888L2.71776 0.234198C3.18618 -0.164242 3.63919 -0.0264819 3.93895 0.437625L5.75376 3.87899C5.94478 4.28668 5.8352 4.72351 5.55022 5.01483L4.71912 5.8455C4.66781 5.91578 4.63515 5.99578 4.63432 6.08284C4.95302 7.31647 5.9185 8.4535 6.77141 9.23599C7.6243 10.0185 8.54108 11.0786 9.73111 11.3296C9.8782 11.3706 10.0584 11.385 10.1636 11.2872L11.1304 10.304C11.4637 10.0514 11.9449 9.92791 12.3007 10.1345H12.3177L15.5911 12.067C16.0717 12.3683 16.1218 12.9504 15.7777 13.3046Z" fill="white"/>
</svg>
