<svg width="30" height="30" viewBox="0 0 30 30" fill="none" xmlns="http://www.w3.org/2000/svg">
<path d="M13.5874 15.0002L7.54289 8.95675C7.15237 8.56631 7.15237 7.93327 7.54289 7.54283C7.9334 7.15239 8.56655 7.15239 8.95707 7.54283L15.0016 13.5863L21.0429 7.54606C21.4334 7.15562 22.0666 7.15562 22.4571 7.54606C22.8476 7.9365 22.8476 8.56954 22.4571 8.95998L16.4158 15.0002L22.4568 21.04C22.8473 21.4305 22.8473 22.0635 22.4568 22.4539C22.0663 22.8444 21.4331 22.8444 21.0426 22.4539L15.0016 16.4141L8.95741 22.4572C8.5669 22.8476 7.93375 22.8476 7.54323 22.4572C7.15272 22.0667 7.15272 21.4337 7.54323 21.0433L13.5874 15.0002Z" fill="#061628" fill-opacity="0.6"/>
</svg>
