<svg width="32" height="32" viewBox="0 0 32 32" fill="none" xmlns="http://www.w3.org/2000/svg">
<g clip-path="url(#clip0_4047_106404)">
<path d="M22.2222 10.2222C22.0159 10.4285 21.9 10.7083 21.9 11V13C21.9 13.2917 22.0159 13.5715 22.2222 13.7778C22.4285 13.9841 22.7083 14.1 23 14.1H27C27.2917 14.1 27.5715 13.9841 27.7778 13.7778C27.9841 13.5715 28.1 13.2917 28.1 13V11C28.1 10.7083 27.9841 10.4285 27.7778 10.2222C27.5715 10.0159 27.2917 9.9 27 9.9H23C22.7083 9.9 22.4285 10.0159 22.2222 10.2222Z" fill="#15C657" stroke="#15C657" stroke-width="0.2"/>
<path d="M4 3.9C2.91261 3.9 1.86976 4.33196 1.10086 5.10086C0.331963 5.86976 -0.1 6.91261 -0.1 8V24C-0.1 25.0874 0.331963 26.1302 1.10086 26.8991C1.86976 27.668 2.91261 28.1 4 28.1H28C29.0874 28.1 30.1302 27.668 30.8991 26.8991C31.668 26.1302 32.1 25.0874 32.1 24V8C32.1 6.91261 31.668 5.86976 30.8991 5.10086C30.1302 4.33196 29.0874 3.9 28 3.9H4ZM29.9 8V17.9H2.1V8C2.1 7.49609 2.30018 7.01282 2.6565 6.6565C3.01282 6.30018 3.49609 6.1 4 6.1H28C28.5039 6.1 28.9872 6.30018 29.3435 6.6565C29.6998 7.01282 29.9 7.49609 29.9 8ZM28 25.9H4C3.49609 25.9 3.01282 25.6998 2.6565 25.3435C2.30018 24.9872 2.1 24.5039 2.1 24V22.1H29.9V24C29.9 24.5039 29.6998 24.9872 29.3435 25.3435C28.9872 25.6998 28.5039 25.9 28 25.9Z" fill="#15C657" stroke="#15C657" stroke-width="0.2"/>
</g>
<defs>
<clipPath id="clip0_4047_106404">
<rect width="32" height="32" fill="white"/>
</clipPath>
</defs>
</svg>
