<svg width="32" height="32" viewBox="0 0 32 32" fill="none" xmlns="http://www.w3.org/2000/svg">
<g clip-path="url(#clip0_4047_106386)">
<path d="M0 -0.1H-0.1V0V32V32.1H0H32H32.1V32V30V29.9H32H2.1V0V-0.1H2H0ZM20.8514 18.6974L20.8514 18.6973L27.9 10.0802V15C27.9 15.2917 28.0159 15.5715 28.2222 15.7778C28.4285 15.9841 28.7083 16.1 29 16.1C29.2917 16.1 29.5715 15.9841 29.7778 15.7778C29.9841 15.5715 30.1 15.2917 30.1 15V7C30.1 6.70826 29.9841 6.42847 29.7778 6.22218C29.5715 6.01589 29.2917 5.9 29 5.9H21C20.7083 5.9 20.4285 6.01589 20.2222 6.22218C20.0159 6.42847 19.9 6.70826 19.9 7C19.9 7.29174 20.0159 7.57153 20.2222 7.77782C20.4285 7.98411 20.7083 8.1 21 8.1H26.679L19.9186 16.3631L14.7787 11.2213L14.7787 11.2213C14.6662 11.1089 14.5307 11.0222 14.3815 10.9673C14.2323 10.9123 14.073 10.8903 13.9145 10.9029C13.7559 10.9154 13.6021 10.9622 13.4634 11.0399C13.3247 11.1177 13.2045 11.2246 13.1111 11.3533L5.11113 22.3532L5.11107 22.3531L5.109 22.3562C4.95023 22.5924 4.8892 22.881 4.93875 23.1613C4.9883 23.4416 5.14456 23.6918 5.3747 23.8593C5.60485 24.0267 5.89095 24.0985 6.17289 24.0594C6.45483 24.0204 6.71065 23.8735 6.8866 23.6498L6.88666 23.6499L6.88887 23.6468L14.132 13.6875L19.2233 18.7787L19.2234 18.7788C19.332 18.8872 19.4622 18.9718 19.6055 19.0269C19.7488 19.082 19.902 19.1065 20.0554 19.0989C20.2087 19.0912 20.3588 19.0515 20.4959 18.9824C20.633 18.9132 20.754 18.8161 20.8514 18.6974Z" fill="#15C657" stroke="#15C657" stroke-width="0.2"/>
</g>
<defs>
<clipPath id="clip0_4047_106386">
<rect width="32" height="32" fill="white"/>
</clipPath>
</defs>
</svg>
