<svg width="70" height="70" viewBox="0 0 70 70" fill="none" xmlns="http://www.w3.org/2000/svg">
<path fill-rule="evenodd" clip-rule="evenodd" d="M4.57067 18.3305C4.38718 18.5632 4.23722 18.8387 4.23722 18.9429C4.23722 19.0471 3.95883 21.6165 3.61861 24.6526L3 30.1728L3.45834 34.7639C3.71043 37.289 3.99913 40.46 4.09987 41.8106C4.33842 45.0103 4.40687 45.1428 7.23045 47.8706C15.1106 55.4834 15.9508 56.4018 17.0502 58.6041L17.6953 59.8962L17.7722 63.7978C17.8485 67.6704 17.8519 67.7017 18.2122 67.9927C18.723 68.4049 19.3973 68.3663 19.8669 67.8977L20.2557 67.5097L20.2011 63.4852C20.1507 59.7529 20.1217 59.3984 19.8037 58.6033C18.6703 55.7694 16.883 53.6969 9.29238 46.4139L6.73412 43.9593L6.47711 40.813C6.33576 39.0825 6.05106 35.9637 5.84419 33.8824L5.46813 30.0979L5.99769 25.3856C6.28885 22.7938 6.5637 20.6368 6.60846 20.5922C6.81779 20.3831 7.79769 21.4078 8.22389 22.2812C8.94186 23.7529 9.15903 25.4083 9.15903 29.4078C9.15903 33.2146 9.30361 34.2476 10.3324 37.7867C11.4571 41.6558 11.3455 41.4829 15.1655 45.2788C18.0772 48.172 18.6134 48.6404 19.0134 48.6404C19.6465 48.6404 20.2331 48.0386 20.2331 47.3894C20.2331 46.9469 19.8758 46.533 17.0149 43.6605L13.7965 40.4293L13.2623 38.8864C12.7229 37.3287 11.8537 34.08 11.9515 33.9878C12.081 33.8658 13.8569 34.2499 14.3649 34.5099C15.0829 34.8774 15.3634 35.1951 16.5422 36.976C19.0828 40.8145 18.8539 40.5834 22.7654 43.2618C24.7141 44.5963 26.9314 46.238 27.6927 46.9101C29.7965 48.7673 31.5607 50.8806 32.2228 52.3368C32.747 53.4899 32.5935 56.206 31.7663 60.4158C31.3765 62.399 31.3072 63.1135 31.3072 65.1423C31.3072 67.4752 31.3163 67.5413 31.6848 67.9089C31.9227 68.1465 32.238 68.2857 32.5376 68.2857C32.8373 68.2857 33.1526 68.1465 33.3905 67.9089C33.7578 67.5425 33.7681 67.4693 33.7681 65.2373C33.7681 63.295 33.8399 62.5832 34.236 60.6042C34.4933 59.3182 34.7458 57.7233 34.7971 57.06C34.8484 56.3966 34.939 55.8539 34.9985 55.8539C35.0581 55.8539 35.1487 56.3966 35.2 57.06C35.2512 57.7233 35.5038 59.3182 35.7611 60.6042C36.1572 62.5832 36.229 63.295 36.229 65.2373C36.229 67.4693 36.2393 67.5425 36.6066 67.9089C37.106 68.4074 37.8129 68.4074 38.3123 67.9089C38.6808 67.5413 38.6899 67.4752 38.6899 65.1423C38.6899 63.1173 38.6201 62.3953 38.2325 60.4158C37.3953 56.1402 37.2418 53.5078 37.7626 52.3629C38.436 50.8827 40.3059 48.6406 42.3668 46.8426C43.0938 46.2084 45.2113 44.653 47.0724 43.3865C48.9334 42.12 50.6477 40.8673 50.8818 40.603C51.1159 40.3386 52.0085 39.0864 52.865 37.8202C54.6822 35.134 54.8836 34.893 55.6322 34.5099C56.1402 34.2499 57.916 33.8658 58.0455 33.9878C58.1434 34.08 57.2742 37.3287 56.7348 38.8864L56.2006 40.4293L52.9822 43.6605C50.1213 46.533 49.764 46.9469 49.764 47.3894C49.764 48.0386 50.3506 48.6404 50.9837 48.6404C51.3837 48.6404 51.9202 48.1715 54.8354 45.2749C58.666 41.4687 58.5043 41.7221 59.6851 37.6667C60.7272 34.0879 60.8371 33.2684 60.8097 29.2849C60.7818 25.2423 60.9568 23.9753 61.7769 22.2812C62.2 21.407 63.1781 20.3821 63.3886 20.5922C63.4334 20.6368 63.7082 22.7938 63.9994 25.3856L64.5289 30.0979L64.1529 33.8824C63.946 35.9637 63.6601 39.0825 63.5175 40.813L63.258 43.9593L60.6253 46.4909C54.038 52.8253 52.552 54.4358 51.1115 56.8015C49.8944 58.8001 49.8567 58.9909 49.796 63.4852L49.7414 67.5097L50.1302 67.8977C50.5998 68.3663 51.274 68.4049 51.7848 67.9927C52.1452 67.7017 52.1486 67.6704 52.2249 63.7978L52.3018 59.8962L52.9468 58.6041C54.0436 56.4072 55.1124 55.2382 62.6236 48.0204C65.6948 45.0691 65.5721 45.344 66.004 40.456C66.1991 38.2465 66.5031 35.0368 66.6795 33.3232L67 30.2076L66.3694 24.4982C65.8651 19.9325 65.6831 18.7119 65.4609 18.4051C65.2062 18.0535 65.0879 18.0223 64.0486 18.032C63.1411 18.0404 62.7608 18.1222 62.1454 18.4412C60.7242 19.1776 59.6357 20.6071 59.0171 22.549C58.4417 24.3549 58.3162 25.439 58.3313 28.4735L58.3458 31.4052L56.9209 31.6376C54.2916 32.0662 53.2871 32.7827 51.4894 35.5115C49.1929 38.9973 49.3613 38.8304 45.4328 41.515C42.542 43.4906 41.4924 44.3099 39.9591 45.7871C38.9158 46.7924 37.7092 48.0575 37.2778 48.5985C36.4294 49.6624 35.1523 51.9968 35.1523 52.4837C35.1523 52.649 35.0831 52.7843 34.9985 52.7843C34.9139 52.7843 34.8447 52.6542 34.8447 52.4952C34.8447 52.0363 33.6935 49.8862 32.856 48.7813C32.435 48.2257 31.2027 46.9135 30.1176 45.8652C28.4894 44.2922 27.5195 43.532 24.5643 41.5124C20.6319 38.8251 20.8013 38.9929 18.5077 35.5115C16.71 32.7827 15.7055 32.0662 13.0762 31.6376L11.6513 31.4052L11.6658 28.4735C11.6808 25.439 11.5553 24.3549 10.9799 22.549C10.0837 19.7356 8.33417 18.1321 5.99338 17.9789C4.94919 17.9106 4.89013 17.9252 4.57067 18.3305Z" fill="#A3ABB3"/>
<path fill-rule="evenodd" clip-rule="evenodd" d="M20.464 2.23398C17.0109 2.95902 13.8602 5.68495 12.5327 9.09602C12.0085 10.4434 11.6201 12.5106 11.6201 13.9542C11.6201 17.9045 13.7047 22.6434 17.5609 27.4604C19.1291 29.4192 22.967 33.1739 25.3089 35.0402C28.6425 37.6968 34.2055 41.2734 35.0041 41.2734C35.4158 41.2734 37.8614 39.8854 40.2281 38.3084C49.9927 31.802 56.9212 23.2845 58.1515 16.2747C58.5723 13.877 58.3269 11.3118 57.4648 9.09602C55.7337 4.64774 51.2785 1.73011 46.6714 2.02802C42.5871 2.292 38.446 5.42097 35.7488 10.2806C35.3786 10.9477 35.041 11.4943 34.9987 11.495C34.9564 11.4958 34.6673 11.0308 34.3561 10.4615C32.4777 7.02467 29.7421 4.26528 26.9268 2.96715C24.8352 2.00285 22.712 1.76204 20.464 2.23398ZM24.455 4.67307C26.0909 5.09836 27.4133 5.91824 29.0212 7.50429C31.0067 9.46299 32.3399 11.5188 33.4713 14.3672C34.0663 15.8654 34.2754 16.1029 34.9987 16.1029C35.7218 16.1029 35.9311 15.8654 36.5249 14.3705C38.5197 9.34834 42.0146 5.5901 45.5425 4.67307C49.3886 3.67346 53.7036 6.10595 55.2001 10.1173C56.6722 14.0627 55.7972 18.2561 52.4621 23.2397C50.9403 25.5135 49.2883 27.4475 46.8226 29.8414C43.7229 32.8512 40.3903 35.4004 36.4174 37.8007L34.9907 38.6626L33.8027 37.9489C29.8865 35.5963 26.2231 32.8019 23.1748 29.8417C19.637 26.4063 17.187 23.1884 15.6362 19.9399C14.4658 17.4882 14.1619 16.2563 14.1598 13.9542C14.1581 12.2511 14.2078 11.8841 14.6018 10.6842C15.0374 9.35816 15.8207 7.97808 16.5884 7.18444C18.7649 4.93398 21.7687 3.97489 24.455 4.67307Z" fill="#15C657" fill-opacity="0.9"/>
</svg>
