<svg width="56" height="56" viewBox="0 0 56 56" fill="none" xmlns="http://www.w3.org/2000/svg">
<path d="M37.5844 54.3707V16.3748C37.5844 15.9347 37.2292 15.5779 36.789 15.5779H28.5377C28.0975 15.5779 27.7444 15.9362 27.7092 16.3749C27.3166 21.2586 23.3451 24.875 18.6942 25.2488C18.2554 25.2841 17.8976 25.6384 17.8976 26.0785V31.9608C17.8976 32.4009 18.2544 32.7567 18.6946 32.7567H26.944C27.3841 32.7567 27.741 33.1135 27.741 33.5537C27.741 40.5303 27.7362 47.5069 27.7362 54.4835C27.7362 54.9237 27.3795 55.3119 26.9393 55.3119H26.5894C12.0636 54.6169 0.5 42.6198 0.5 27.9219C0.5 12.7772 12.7772 0.5 27.9219 0.5C43.0666 0.5 55.3438 12.7772 55.3438 27.9219V43.7454C55.3438 50.151 50.151 55.3438 43.7454 55.3438H39.7688L38.4001 55.3119C37.96 55.3119 37.5866 54.9237 37.5866 54.4835L37.5844 54.3707Z" fill="#15C657"/>
</svg>
