<svg width="34" height="34" viewBox="0 0 34 34" fill="none" xmlns="http://www.w3.org/2000/svg">
<path d="M18.0226 3.13773L18.1223 3.14509L18.1297 3.0454L18.2777 1.0514L18.2851 0.951686L18.1854 0.944275C17.791 0.914961 17.3956 0.900193 17 0.9L16.9 0.899951V1V3V3.09999L17 3.1C17.3412 3.10002 17.6823 3.1126 18.0226 3.13773ZM22.002 4.0313L22.0953 4.0673L22.1313 3.974L22.8513 2.108L22.8872 2.01488L22.7942 1.97877C22.0574 1.69293 21.2986 1.46349 20.5279 1.29043L20.4303 1.26852L20.4084 1.36611L19.9704 3.31811L19.9485 3.41564L20.0461 3.43756C20.7117 3.58722 21.3655 3.78567 22.002 4.0313ZM23.813 4.7687L23.7636 4.85578L23.8508 4.90505C24.1323 5.06425 24.4082 5.23321 24.678 5.41163V5.41347L24.7225 5.44316C25.0064 5.63279 25.2833 5.83282 25.5525 6.04284L25.6314 6.10438L25.6929 6.02548L26.9229 4.44748L26.9843 4.36863L26.9055 4.30715C26.2819 3.82078 25.6234 3.38088 24.9353 2.991L24.8483 2.9417L24.799 3.0287L23.813 4.7687ZM28.3642 8.99556L28.4218 9.07735L28.5036 9.01976L30.1396 7.86776L30.2216 7.80999L30.1636 7.72814C29.7069 7.08435 29.2039 6.4707 28.6606 5.89723L28.5916 5.82441L28.519 5.89361L27.071 7.27361L26.9987 7.34256L27.0676 7.41495C27.5381 7.90923 27.9714 8.43753 28.3642 8.99556ZM29.461 10.6167L29.3718 10.6616L29.4166 10.7509C29.5695 11.0554 29.7113 11.3654 29.8416 11.6803C29.9718 11.9955 30.0903 12.3154 30.197 12.6393L30.2283 12.7343L30.3233 12.703L32.2233 12.077L32.3183 12.0457L32.287 11.9507C32.0395 11.1995 31.7367 10.4676 31.3813 9.76106L31.3364 9.67166L31.247 9.7167L29.461 10.6167ZM30.894 16.6584L30.8963 16.756H30.994H30.996V16.756L30.9985 16.756L32.9985 16.706L33.0985 16.7035L33.096 16.6035C33.0758 15.8145 32.9974 15.0257 32.8625 14.2489L32.8454 14.1505L32.747 14.1675L30.777 14.5075L30.6784 14.5245L30.6955 14.623C30.8116 15.2957 30.878 15.9759 30.894 16.6584ZM30.9063 18.6128L30.8069 18.6005L30.7947 18.6998C30.7531 19.0393 30.6994 19.3749 30.6339 19.7126C30.5664 20.0481 30.487 20.3796 30.3957 20.7071L30.3688 20.8036L30.4653 20.8304L32.3933 21.3644L32.4896 21.3911L32.5164 21.2947C32.7279 20.5324 32.8826 19.7554 32.9792 18.9702L32.9915 18.871L32.8923 18.8588L30.9063 18.6128ZM28.7436 24.4364L28.6899 24.5209L28.7745 24.5745L30.4645 25.6445L30.549 25.698L30.6025 25.6135C31.0251 24.9453 31.3974 24.249 31.7194 23.5246L31.76 23.4331L31.6685 23.3926L29.8405 22.5826L29.7493 22.5422L29.7087 22.6333C29.4306 23.257 29.1089 23.8607 28.7436 24.4364ZM26.8293 26.8293L26.7586 26.9L26.8293 26.9707L28.2433 28.3847L28.314 28.4555L28.3848 28.3847C28.6642 28.1048 28.9334 27.8148 29.1917 27.5153L29.2571 27.4395L29.1813 27.3742L27.6653 26.0682L27.5892 26.0027L27.524 26.0791C27.3038 26.3369 27.0716 26.587 26.8293 26.8293Z" fill="#15C657" stroke="#15C657" stroke-width="0.2"/>
<path d="M17 3.1L17.1 3.09999V3V1V0.900027L17.0001 0.900001C14.3517 0.899298 11.744 1.55184 9.40816 2.7998C7.07226 4.04777 5.08025 5.85263 3.60862 8.05447C2.13698 10.2563 1.23116 12.7871 0.971412 15.4227C0.711664 18.0583 1.10601 20.7173 2.1195 23.164C3.133 25.6108 4.73436 27.7698 6.78169 29.4498C8.82902 31.1297 11.2591 32.2787 13.8567 32.795C16.4542 33.3113 19.139 33.179 21.6732 32.4097C24.2073 31.6404 26.5126 30.2579 28.3848 28.3847L28.4554 28.314L28.3847 28.2433L26.9707 26.8293L26.9 26.7586L26.8293 26.8293C25.2129 28.4455 23.2229 29.6382 21.0355 30.3016C18.8481 30.9651 16.5309 31.0788 14.289 30.6329C12.0471 30.1869 9.94985 29.1949 8.18292 27.7448C6.41598 26.2947 5.03392 24.4312 4.15916 22.3194C3.2844 20.2076 2.94394 17.9127 3.16793 15.6379C3.39192 13.3631 4.17344 11.1787 5.44329 9.27805C6.71313 7.37743 8.43209 5.8193 10.4479 4.74167C12.4638 3.66404 14.7142 3.10017 17 3.1Z" fill="#15C657" stroke="#15C657" stroke-width="0.2"/>
<path d="M23.5477 22.0464L23.5477 22.0463L23.5456 22.0452L17.1 18.362V8C17.1 7.70826 16.9841 7.42847 16.7778 7.22218C16.5715 7.01589 16.2917 6.9 16 6.9C15.7083 6.9 15.4285 7.01589 15.2222 7.22218C15.0159 7.42847 14.9 7.70826 14.9 8L14.9 19L14.9 19C14.9001 19.1939 14.9514 19.3844 15.0487 19.552C15.1461 19.7197 15.286 19.8587 15.4544 19.9548C15.4544 19.9548 15.4544 19.9548 15.4544 19.9548L22.4544 23.9548L22.4544 23.9548L22.4565 23.956C22.7091 24.0925 23.0052 24.1248 23.2814 24.046C23.5576 23.9671 23.792 23.7834 23.9345 23.534C24.077 23.2846 24.1163 22.9894 24.044 22.7114C23.9718 22.4334 23.7936 22.1947 23.5477 22.0464Z" fill="#15C657" stroke="#15C657" stroke-width="0.2"/>
</svg>
